# xmcd
#
# Track frame offsets: 
#        150
#        10612
#        18030
#        25075
#        36742
#        50525
#        60100
#        70960
#        101865
#        136650
#
# Disc length: 1993 seconds
#
# Revision: 0
# Processed by: cddbd v1.4PL0 Copyright (c) Steve Scherf et al.
# Submitted via: ExactAudioCopy v0.90b4
#
DISCID=7707c70a
DTITLE=Glen Meadmore - Hot Horny and Born Again
DYEAR=1900
DGENRE=Country
TTITLE0=Glory Hole
TTITLE1=Sassy
TTITLE2=Looky Lu
TTITLE3=I Wonder If
TTITLE4=Yonder Over There
TTITLE5=Let Me Turn You Out
TTITLE6=Tell Me Truly
TTITLE7=Never Make You Mine
TTITLE8=Blow You
TTITLE9=Eternal Love
EXTD=
EXTT0=
EXTT1=
EXTT2=
EXTT3=
EXTT4=
EXTT5=
EXTT6=
EXTT7=
EXTT8=
EXTT9=
PLAYORDER=
